<?xml version="1.0" encoding="UTF-8"?> <svg xmlns="http://www.w3.org/2000/svg" xmlns:xlink="http://www.w3.org/1999/xlink" width="299pt" height="70pt" viewBox="0 0 299 70" version="1.1"><defs><linearGradient id="linear0" gradientUnits="userSpaceOnUse" x1="-6008.26" y1="8.64" x2="-6015.38" y2="49.03" gradientTransform="matrix(1.272109,0,0,1.272496,7696.465527,0)"><stop offset="0" style="stop-color:rgb(0%,67.843137%,93.333333%);stop-opacity:1;"></stop><stop offset="0.21" style="stop-color:rgb(0%,66.27451%,91.764706%);stop-opacity:1;"></stop><stop offset="0.42" style="stop-color:rgb(0%,61.176471%,87.45098%);stop-opacity:1;"></stop><stop offset="0.64" style="stop-color:rgb(0%,53.333333%,80%);stop-opacity:1;"></stop><stop offset="0.86" style="stop-color:rgb(0%,41.960784%,70.196078%);stop-opacity:1;"></stop><stop offset="1" style="stop-color:rgb(0%,32.941176%,61.960784%);stop-opacity:1;"></stop></linearGradient><linearGradient id="linear1" gradientUnits="userSpaceOnUse" x1="-6050.07" y1="27.51" x2="-5996.78" y2="27.51" gradientTransform="matrix(1.272109,0,0,1.272496,7696.465527,0)"><stop offset="0" style="stop-color:rgb(98.823529%,72.156863%,7.45098%);stop-opacity:1;"></stop><stop offset="0.2" style="stop-color:rgb(98.431373%,70.588235%,7.843137%);stop-opacity:1;"></stop><stop offset="0.41" style="stop-color:rgb(98.039216%,65.490196%,9.019608%);stop-opacity:1;"></stop><stop offset="0.62" style="stop-color:rgb(96.862745%,57.647059%,10.588235%);stop-opacity:1;"></stop><stop offset="0.83" style="stop-color:rgb(95.686275%,46.27451%,13.333333%);stop-opacity:1;"></stop><stop offset="1" style="stop-color:rgb(94.117647%,35.294118%,15.686275%);stop-opacity:1;"></stop></linearGradient></defs><g id="surface1"><path style=" stroke:none;fill-rule:nonzero;fill:rgb(0%,32.941176%,61.960784%);fill-opacity:1;" d="M 191.363281 18.132812 C 194.007812 20.6875 195.472656 24.226562 195.410156 27.90625 C 195.464844 31.578125 194 35.109375 191.363281 37.664062 C 188.78125 40.253906 185.273438 41.710938 181.613281 41.710938 C 177.957031 41.710938 174.449219 40.253906 171.863281 37.664062 C 169.222656 35.113281 167.757812 31.578125 167.820312 27.90625 C 167.746094 24.230469 169.207031 20.6875 171.851562 18.132812 C 174.433594 15.542969 177.945312 14.085938 181.601562 14.085938 C 185.261719 14.085938 188.769531 15.542969 191.351562 18.132812 Z M 181.621094 18.832031 C 176.621094 18.847656 172.570312 22.902344 172.5625 27.90625 C 172.535156 32.015625 175.277344 35.632812 179.246094 36.710938 C 183.210938 37.789062 187.40625 36.0625 189.460938 32.5 C 191.519531 28.941406 190.921875 24.441406 188.007812 21.542969 C 186.347656 19.792969 184.03125 18.8125 181.621094 18.832031 Z M 181.621094 18.832031 "></path><path style=" stroke:none;fill-rule:nonzero;fill:rgb(0%,32.941176%,61.960784%);fill-opacity:1;" d="M 273.046875 37.753906 L 265.492188 16.65625 C 265.222656 15.878906 264.707031 15.210938 264.027344 14.75 C 263.363281 14.308594 262.585938 14.078125 261.789062 14.085938 C 260.996094 14.074219 260.21875 14.304688 259.5625 14.75 C 258.871094 15.199219 258.351562 15.871094 258.085938 16.65625 L 250.976562 36.519531 L 250.53125 37.792969 L 249.257812 41.417969 C 249.257812 41.417969 253.773438 42.921875 255.019531 39.421875 L 256.675781 34.828125 L 266.980469 34.828125 L 268.609375 39.449219 C 269.878906 42.882812 274.359375 41.40625 274.359375 41.40625 Z M 258.1875 30.539062 L 261.789062 20.359375 L 265.402344 30.539062 Z M 258.1875 30.539062 "></path><path style=" stroke:none;fill-rule:nonzero;fill:rgb(0%,32.941176%,61.960784%);fill-opacity:1;" d="M 239.757812 30.273438 C 243.214844 30.070312 243.332031 25.539062 243.332031 25.539062 L 234.707031 25.539062 L 234.707031 18.832031 L 242.339844 18.832031 C 245.976562 18.832031 246.089844 14.097656 246.089844 14.097656 L 233.800781 14.097656 C 232.785156 14.082031 231.804688 14.488281 231.09375 15.21875 C 230.351562 15.933594 229.9375 16.925781 229.949219 17.953125 L 229.949219 41.710938 L 246.117188 41.710938 C 246.117188 41.710938 246.003906 37.003906 242.300781 36.980469 L 234.667969 36.980469 L 234.667969 30.273438 Z M 239.757812 30.273438 "></path><path style=" stroke:none;fill-rule:nonzero;fill:rgb(0%,32.941176%,61.960784%);fill-opacity:1;" d="M 219.390625 34.675781 C 218.015625 36.144531 216.082031 36.953125 214.070312 36.902344 C 211.671875 37.003906 209.34375 36.046875 207.710938 34.28125 C 206.125 32.519531 205.289062 30.210938 205.382812 27.84375 C 205.292969 25.472656 206.128906 23.164062 207.710938 21.402344 C 209.347656 19.644531 211.671875 18.6875 214.070312 18.78125 C 216.089844 18.75 218.023438 19.578125 219.390625 21.058594 C 221.488281 23.746094 225.367188 21.46875 225.367188 21.46875 C 222.824219 16.519531 219.058594 14.046875 214.070312 14.046875 C 210.402344 13.921875 206.851562 15.371094 204.316406 18.03125 C 201.839844 20.6875 200.511719 24.214844 200.625 27.84375 C 200.511719 31.472656 201.839844 34.996094 204.316406 37.652344 C 206.847656 40.316406 210.398438 41.769531 214.070312 41.648438 C 219.058594 41.648438 222.824219 39.171875 225.367188 34.21875 C 225.367188 34.21875 221.464844 32.003906 219.390625 34.675781 Z M 219.390625 34.675781 "></path><path style=" stroke:none;fill-rule:nonzero;fill:rgb(0%,32.941176%,61.960784%);fill-opacity:1;" d="M 298.882812 17.890625 L 298.882812 14.074219 C 298.882812 14.074219 294.140625 14.1875 294.140625 17.890625 L 294.140625 33.875 L 285.691406 16.058594 C 285.300781 15.203125 284.566406 14.558594 283.667969 14.277344 C 282.484375 13.820312 281.144531 13.980469 280.105469 14.710938 C 279.0625 15.441406 278.453125 16.644531 278.480469 17.917969 L 278.480469 41.6875 C 278.480469 41.6875 283.109375 41.558594 283.199219 37.957031 L 283.199219 21.898438 L 291.605469 39.714844 C 292.019531 40.558594 292.753906 41.203125 293.644531 41.507812 C 294.445312 41.785156 295.320312 41.785156 296.125 41.507812 C 297.75 41.039062 298.859375 39.539062 298.832031 37.84375 L 298.832031 17.902344 Z M 298.882812 17.890625 "></path><path style=" stroke:none;fill-rule:nonzero;fill:url(#linear0);" d="M 75.363281 34.980469 C 75.386719 25.433594 69.722656 16.785156 60.957031 13 C 52.191406 9.214844 42.015625 11.019531 35.085938 17.585938 C 42.566406 15.320312 50.652344 18.105469 55.152344 24.496094 C 59.652344 30.886719 59.546875 39.445312 54.890625 45.722656 C 50.234375 52 42.078125 54.585938 34.660156 52.132812 C 27.238281 49.683594 22.226562 42.746094 22.226562 34.929688 C 22.125 42.40625 25.050781 49.605469 30.335938 54.890625 C 35.617188 60.175781 42.816406 63.101562 50.289062 63 C 56.570312 63.019531 62.664062 60.867188 67.539062 56.90625 L 67.894531 56.550781 C 72.757812 50.390625 75.398438 42.765625 75.386719 34.917969 Z M 75.363281 34.980469 "></path><path style=" stroke:none;fill-rule:nonzero;fill:url(#linear1);" d="M 22.175781 35.03125 C 22.160156 24.1875 28.40625 14.308594 38.210938 9.679688 C 48.011719 5.050781 59.609375 6.5 67.96875 13.398438 C 56.097656 -1.773438 34.179688 -4.460938 18.996094 7.394531 C 18.496094 3.195312 14.949219 0.0273438 10.726562 0 L 0.117188 0 C 3.453125 0.863281 5.699219 3.992188 5.445312 7.429688 C 5.445312 11.464844 5.445312 14.265625 5.445312 16.875 L 5.445312 35.960938 C 5.824219 50.707031 15.410156 63.632812 29.410156 68.265625 C 43.410156 72.902344 58.808594 68.25 67.90625 56.640625 C 59.542969 63.5 47.976562 64.925781 38.195312 60.300781 C 28.417969 55.675781 22.179688 45.828125 22.175781 35.007812 Z M 22.175781 35.03125 "></path><path style=" stroke:none;fill-rule:nonzero;fill:rgb(98.823529%,72.156863%,7.45098%);fill-opacity:1;" d="M 164.21875 14.316406 C 164.21875 14.316406 159.5625 13.207031 158.621094 16.859375 L 154.042969 34.203125 L 150.46875 17.179688 C 150.300781 16.289062 149.804688 15.496094 149.082031 14.953125 C 147.65625 13.882812 145.695312 13.882812 144.273438 14.953125 C 143.550781 15.5 143.058594 16.292969 142.886719 17.179688 L 139.335938 34.21875 L 134.742188 16.824219 C 133.789062 13.207031 129.132812 14.277344 129.132812 14.277344 L 130.125 18.019531 L 135.710938 39.179688 C 136.1875 40.839844 137.699219 41.984375 139.425781 41.992188 C 140.273438 42.007812 141.101562 41.738281 141.777344 41.230469 C 142.523438 40.707031 143.03125 39.917969 143.203125 39.027344 L 146.675781 22.410156 L 150.136719 39.027344 C 150.3125 39.917969 150.824219 40.703125 151.5625 41.230469 C 152.238281 41.738281 153.066406 42.007812 153.914062 41.992188 C 154.753906 42.007812 155.574219 41.738281 156.242188 41.230469 C 156.949219 40.738281 157.449219 40.003906 157.652344 39.167969 L 163.214844 17.953125 Z M 164.21875 14.316406 "></path><path style=" stroke:none;fill-rule:nonzero;fill:rgb(98.823529%,72.156863%,7.45098%);fill-opacity:1;" d="M 119.910156 30.539062 C 123.410156 30.324219 123.523438 25.753906 123.523438 25.753906 L 114.808594 25.753906 L 114.808594 19.011719 L 122.542969 19.011719 C 124.867188 18.652344 126.527344 16.570312 126.359375 14.226562 L 113.894531 14.226562 C 112.863281 14.210938 111.871094 14.625 111.160156 15.371094 C 110.417969 16.09375 110 17.085938 110 18.121094 L 110 41.992188 L 126.347656 41.992188 C 126.347656 41.992188 126.21875 37.246094 122.53125 37.207031 L 114.808594 37.207031 L 114.808594 30.539062 Z M 119.910156 30.539062 "></path><path style=" stroke:none;fill-rule:nonzero;fill:rgb(98.823529%,72.156863%,7.45098%);fill-opacity:1;" d="M 104.097656 17.96875 L 104.097656 14.148438 C 104.097656 14.148438 99.316406 14.277344 99.316406 17.96875 L 99.316406 34.101562 L 90.765625 16.160156 C 90.375 15.289062 89.628906 14.628906 88.71875 14.339844 C 87.894531 14.058594 87 14.058594 86.175781 14.339844 C 84.523438 14.816406 83.394531 16.335938 83.414062 18.058594 L 83.414062 41.992188 C 83.414062 41.992188 88.109375 41.878906 88.183594 38.238281 L 88.183594 22.015625 L 96.796875 40.03125 C 97.207031 40.886719 97.945312 41.539062 98.84375 41.839844 C 99.667969 42.121094 100.5625 42.121094 101.390625 41.839844 C 102.996094 41.347656 104.09375 39.859375 104.085938 38.175781 L 104.085938 17.96875 Z M 104.097656 17.96875 "></path><path style=" stroke:none;fill-rule:nonzero;fill:rgb(0%,32.941176%,61.960784%);fill-opacity:1;" d="M 87.332031 48.355469 C 88.378906 47.632812 89.625 47.265625 90.894531 47.296875 C 91.910156 47.28125 92.90625 47.570312 93.757812 48.125 C 94.667969 48.78125 95.398438 49.65625 95.878906 50.671875 L 96.019531 50.949219 L 97.113281 50.390625 L 96.960938 50.109375 C 96.382812 48.917969 95.507812 47.890625 94.417969 47.132812 C 93.371094 46.445312 92.144531 46.085938 90.894531 46.101562 C 89.371094 46.0625 87.875 46.507812 86.621094 47.375 C 85.523438 48.164062 84.6875 49.261719 84.214844 50.53125 C 83.839844 51.496094 83.652344 52.523438 83.65625 53.558594 C 83.652344 54.59375 83.84375 55.621094 84.214844 56.589844 C 84.695312 57.84375 85.53125 58.929688 86.621094 59.71875 C 87.875 60.585938 89.371094 61.03125 90.894531 60.992188 C 92.144531 61.003906 93.371094 60.648438 94.417969 59.960938 C 95.507812 59.203125 96.382812 58.175781 96.960938 56.980469 L 97.113281 56.691406 L 96.019531 56.140625 L 95.878906 56.421875 C 95.398438 57.4375 94.667969 58.3125 93.757812 58.96875 C 92.90625 59.527344 91.910156 59.820312 90.894531 59.808594 C 89.621094 59.839844 88.375 59.46875 87.332031 58.738281 C 86.429688 58.105469 85.742188 57.222656 85.347656 56.195312 C 85.03125 55.382812 84.867188 54.519531 84.863281 53.648438 C 84.859375 52.777344 85.023438 51.914062 85.347656 51.101562 C 85.707031 50.003906 86.402344 49.042969 87.332031 48.355469 Z M 87.332031 48.355469 "></path><path style=" stroke:none;fill-rule:nonzero;fill:rgb(0%,32.941176%,61.960784%);fill-opacity:1;" d="M 104.785156 50.898438 C 103.445312 50.878906 102.15625 51.414062 101.222656 52.375 L 100.945312 52.679688 L 100.945312 46.078125 L 99.671875 46.078125 L 99.671875 61.003906 L 100.945312 61.003906 L 100.945312 55.988281 C 100.929688 54.96875 101.339844 53.988281 102.074219 53.28125 C 102.792969 52.558594 103.769531 52.148438 104.785156 52.148438 C 105.804688 52.148438 106.777344 52.558594 107.496094 53.28125 C 108.226562 53.988281 108.636719 54.96875 108.628906 55.988281 L 108.628906 61.078125 L 109.898438 61.078125 L 109.898438 55.988281 C 109.898438 53.179688 107.621094 50.898438 104.8125 50.898438 Z M 104.785156 50.898438 "></path><path style=" stroke:none;fill-rule:nonzero;fill:rgb(0%,32.941176%,61.960784%);fill-opacity:1;" d="M 117.53125 50.898438 C 115.207031 50.863281 113.152344 52.402344 112.539062 54.644531 C 111.925781 56.886719 112.910156 59.261719 114.929688 60.410156 C 116.949219 61.5625 119.492188 61.199219 121.105469 59.527344 L 121.375 59.246094 L 121.375 61.003906 L 122.644531 61.003906 L 122.644531 55.988281 C 122.644531 53.179688 120.367188 50.898438 117.558594 50.898438 Z M 117.53125 59.808594 C 115.425781 59.808594 113.714844 58.097656 113.714844 55.988281 C 113.710938 54.96875 114.113281 53.988281 114.835938 53.265625 C 116.0625 52.0625 117.945312 51.824219 119.429688 52.691406 C 120.917969 53.558594 121.640625 55.3125 121.195312 56.972656 C 120.753906 58.636719 119.253906 59.796875 117.53125 59.808594 Z M 117.53125 59.808594 "></path><path style=" stroke:none;fill-rule:nonzero;fill:rgb(0%,32.941176%,61.960784%);fill-opacity:1;" d="M 121.449219 44.753906 L 119.578125 44.753906 L 116.769531 48.035156 L 118.257812 48.035156 Z M 121.449219 44.753906 "></path><path style=" stroke:none;fill-rule:nonzero;fill:rgb(0%,32.941176%,61.960784%);fill-opacity:1;" d="M 130.609375 50.898438 C 127.800781 50.898438 125.519531 53.179688 125.519531 55.988281 L 125.519531 64.769531 L 126.792969 64.769531 L 126.792969 59.222656 L 127.058594 59.515625 C 128.003906 60.46875 129.292969 60.996094 130.632812 60.976562 C 133.183594 60.664062 135.101562 58.496094 135.101562 55.925781 C 135.101562 53.355469 133.183594 51.1875 130.632812 50.875 Z M 130.609375 59.808594 C 129.585938 59.820312 128.601562 59.410156 127.886719 58.675781 C 127.160156 57.976562 126.753906 57.011719 126.765625 56.003906 C 126.730469 54.433594 127.660156 53.003906 129.105469 52.394531 C 130.554688 51.789062 132.226562 52.128906 133.320312 53.253906 C 134.050781 53.964844 134.457031 54.945312 134.4375 55.964844 C 134.4375 58.074219 132.730469 59.78125 130.621094 59.78125 Z M 130.609375 59.808594 "></path><path style=" stroke:none;fill-rule:nonzero;fill:rgb(0%,32.941176%,61.960784%);fill-opacity:1;" d="M 149.144531 52.171875 C 149.839844 52.164062 150.527344 52.351562 151.128906 52.707031 C 151.730469 53.070312 152.21875 53.597656 152.539062 54.222656 L 152.691406 54.5 L 153.773438 53.953125 L 153.621094 53.660156 C 153.191406 52.839844 152.542969 52.15625 151.75 51.675781 C 150.984375 51.207031 150.105469 50.957031 149.207031 50.949219 C 147.253906 50.710938 145.339844 51.617188 144.285156 53.28125 C 143.234375 54.941406 143.234375 57.0625 144.285156 58.726562 C 145.339844 60.386719 147.253906 61.292969 149.207031 61.054688 C 150.105469 61.046875 150.984375 60.796875 151.75 60.328125 C 152.550781 59.855469 153.195312 59.167969 153.621094 58.34375 L 153.773438 58.0625 L 152.691406 57.503906 L 152.539062 57.785156 C 152.222656 58.410156 151.734375 58.929688 151.128906 59.285156 C 150.53125 59.65625 149.84375 59.847656 149.144531 59.84375 C 147.035156 59.84375 145.328125 58.136719 145.328125 56.027344 C 145.316406 55.003906 145.722656 54.019531 146.460938 53.304688 C 147.15625 52.570312 148.128906 52.160156 149.144531 52.171875 Z M 149.144531 52.171875 "></path><path style=" stroke:none;fill-rule:nonzero;fill:rgb(0%,32.941176%,61.960784%);fill-opacity:1;" d="M 163.964844 46.839844 L 162.105469 46.839844 L 159.28125 50.125 L 160.769531 50.125 Z M 163.964844 46.839844 "></path><path style=" stroke:none;fill-rule:nonzero;fill:rgb(0%,32.941176%,61.960784%);fill-opacity:1;" d="M 161.050781 50.898438 C 158.242188 50.898438 155.960938 53.179688 155.960938 55.988281 C 155.949219 57.335938 156.488281 58.625 157.449219 59.566406 C 158.382812 60.527344 159.671875 61.058594 161.011719 61.042969 C 162.359375 61.058594 163.65625 60.527344 164.601562 59.566406 L 164.855469 59.285156 L 164.855469 61.042969 L 166.0625 61.042969 L 166.0625 55.988281 C 166.105469 54.632812 165.574219 53.320312 164.601562 52.375 C 163.664062 51.425781 162.382812 50.894531 161.050781 50.898438 Z M 161.050781 59.808594 C 158.941406 59.808594 157.234375 58.097656 157.234375 55.988281 C 157.222656 54.964844 157.632812 53.980469 158.367188 53.265625 C 159.074219 52.535156 160.058594 52.132812 161.078125 52.160156 C 163.183594 52.160156 164.890625 53.867188 164.890625 55.976562 C 164.890625 58.085938 163.183594 59.792969 161.078125 59.792969 Z M 161.050781 59.808594 "></path><path style=" stroke:none;fill-rule:nonzero;fill:rgb(0%,32.941176%,61.960784%);fill-opacity:1;" d="M 174.117188 50.898438 C 171.304688 50.898438 169.027344 53.179688 169.027344 55.988281 L 169.027344 61.078125 L 170.234375 61.078125 L 170.234375 55.988281 C 170.222656 54.429688 171.15625 53.019531 172.597656 52.425781 C 174.039062 51.832031 175.699219 52.175781 176.785156 53.292969 C 177.53125 53.992188 177.953125 54.96875 177.957031 55.988281 L 177.957031 61.078125 L 179.164062 61.078125 L 179.164062 55.988281 C 179.164062 53.179688 176.886719 50.898438 174.078125 50.898438 Z M 174.117188 50.898438 "></path><path style=" stroke:none;fill-rule:nonzero;fill:rgb(0%,32.941176%,61.960784%);fill-opacity:1;" d="M 187.117188 50.898438 C 185.773438 50.878906 184.480469 51.414062 183.542969 52.375 L 183.273438 52.667969 L 183.273438 46.078125 L 182.066406 46.078125 L 182.066406 61.003906 L 183.300781 61.003906 L 183.300781 55.988281 C 183.289062 54.972656 183.691406 53.992188 184.417969 53.28125 C 185.929688 51.800781 188.34375 51.800781 189.851562 53.28125 C 190.585938 53.992188 190.996094 54.976562 190.984375 56.003906 L 190.984375 61.09375 L 192.203125 61.09375 L 192.203125 55.988281 C 192.203125 53.179688 189.925781 50.898438 187.117188 50.898438 Z M 187.117188 50.898438 "></path><path style=" stroke:none;fill-rule:nonzero;fill:rgb(0%,32.941176%,61.960784%);fill-opacity:1;" d="M 221.933594 46.839844 L 220.0625 46.839844 L 217.253906 50.125 L 218.742188 50.125 Z M 221.933594 46.839844 "></path><path style=" stroke:none;fill-rule:nonzero;fill:rgb(0%,32.941176%,61.960784%);fill-opacity:1;" d="M 231.460938 52.171875 C 232.160156 52.164062 232.847656 52.351562 233.445312 52.707031 C 234.050781 53.070312 234.546875 53.59375 234.871094 54.222656 L 235.023438 54.5 L 236.09375 53.953125 L 235.941406 53.660156 C 235.511719 52.839844 234.863281 52.152344 234.070312 51.675781 C 232.285156 50.582031 230.011719 50.695312 228.34375 51.957031 C 226.675781 53.222656 225.949219 55.378906 226.515625 57.390625 C 227.078125 59.40625 228.820312 60.871094 230.902344 61.082031 C 232.984375 61.292969 234.984375 60.207031 235.941406 58.34375 L 236.09375 58.0625 L 235.023438 57.503906 L 234.871094 57.785156 C 234.550781 58.410156 234.054688 58.933594 233.445312 59.285156 C 232.261719 60.019531 230.769531 60.050781 229.558594 59.363281 C 228.34375 58.675781 227.601562 57.382812 227.621094 55.988281 C 227.605469 54.964844 228.015625 53.980469 228.753906 53.265625 C 229.464844 52.539062 230.445312 52.144531 231.460938 52.171875 Z M 231.460938 52.171875 "></path><path style=" stroke:none;fill-rule:nonzero;fill:rgb(0%,32.941176%,61.960784%);fill-opacity:1;" d="M 259.816406 51.292969 C 258.570312 50.761719 257.160156 50.761719 255.910156 51.292969 C 254.957031 51.695312 254.167969 52.414062 253.6875 53.332031 C 253.199219 52.410156 252.410156 51.691406 251.445312 51.292969 C 250.199219 50.761719 248.789062 50.761719 247.542969 51.292969 C 246.71875 51.640625 246.019531 52.226562 245.53125 52.972656 C 244.972656 53.855469 244.6875 54.882812 244.71875 55.925781 L 244.71875 61.015625 L 245.925781 61.015625 L 245.925781 55.988281 C 245.902344 55.1875 246.113281 54.394531 246.535156 53.710938 C 246.894531 53.148438 247.410156 52.703125 248.023438 52.441406 C 248.972656 52.058594 250.03125 52.058594 250.976562 52.441406 C 251.59375 52.699219 252.113281 53.144531 252.464844 53.710938 C 252.886719 54.394531 253.101562 55.1875 253.074219 55.988281 L 253.074219 61.078125 L 254.347656 61.078125 L 254.347656 55.988281 C 254.328125 55.1875 254.542969 54.394531 254.96875 53.710938 C 255.320312 53.140625 255.839844 52.695312 256.457031 52.441406 C 257.40625 52.058594 258.464844 52.058594 259.410156 52.441406 C 260.019531 52.703125 260.535156 53.144531 260.886719 53.710938 C 261.3125 54.386719 261.53125 55.175781 261.507812 55.976562 L 261.507812 61.066406 L 262.71875 61.066406 L 262.71875 55.988281 C 262.742188 54.945312 262.453125 53.917969 261.890625 53.039062 C 261.402344 52.253906 260.675781 51.640625 259.816406 51.292969 Z M 259.816406 51.292969 "></path><path style=" stroke:none;fill-rule:nonzero;fill:rgb(0%,32.941176%,61.960784%);fill-opacity:1;" d="M 115.878906 49.921875 C 116.402344 50.167969 116.976562 50.296875 117.558594 50.289062 C 118.140625 50.296875 118.722656 50.171875 119.25 49.921875 C 119.851562 49.640625 120.292969 49.101562 120.445312 48.457031 L 120.546875 48.0625 L 119.363281 48.0625 L 119.363281 48.292969 C 119.28125 48.5625 119.09375 48.785156 118.84375 48.914062 C 118.070312 49.21875 117.210938 49.21875 116.4375 48.914062 C 116.175781 48.796875 115.980469 48.570312 115.902344 48.292969 L 115.828125 48.0625 L 114.605469 48.0625 L 114.695312 48.457031 C 114.84375 49.097656 115.28125 49.636719 115.878906 49.921875 Z M 115.878906 49.921875 "></path><path style=" stroke:none;fill-rule:nonzero;fill:rgb(0%,32.941176%,61.960784%);fill-opacity:1;" d="M 211.617188 52.835938 L 211.847656 52.835938 L 211.71875 52.972656 C 211.617188 53.09375 211.476562 53.175781 211.324219 53.203125 L 211.324219 50.898438 L 210.117188 50.898438 L 210.117188 55.988281 C 210.117188 58.097656 208.40625 59.808594 206.300781 59.808594 C 204.191406 59.808594 202.484375 58.097656 202.484375 55.988281 L 202.484375 50.898438 L 201.273438 50.898438 L 201.273438 55.988281 C 201.273438 58.800781 203.554688 61.078125 206.363281 61.078125 C 207.71875 61.101562 209.027344 60.570312 209.984375 59.613281 C 210.941406 58.652344 211.472656 57.347656 211.453125 55.988281 L 211.453125 54.460938 C 211.933594 54.441406 212.386719 54.234375 212.722656 53.890625 C 213.042969 53.546875 213.210938 53.085938 213.183594 52.617188 L 213.183594 50.785156 L 211.71875 50.785156 Z M 211.617188 52.835938 "></path><path style=" stroke:none;fill-rule:nonzero;fill:rgb(0%,32.941176%,61.960784%);fill-opacity:1;" d="M 223.675781 52.835938 L 223.90625 52.835938 L 223.777344 52.972656 C 223.675781 53.101562 223.53125 53.1875 223.371094 53.214844 L 223.371094 53.445312 C 223.15625 53.074219 222.894531 52.734375 222.59375 52.425781 C 220.6875 50.546875 217.671875 50.402344 215.589844 52.089844 C 213.507812 53.773438 213.023438 56.753906 214.460938 59.011719 C 215.898438 61.273438 218.804688 62.09375 221.210938 60.917969 C 223.617188 59.746094 224.761719 56.949219 223.867188 54.425781 C 224.195312 54.320312 224.496094 54.140625 224.746094 53.902344 C 225.070312 53.5625 225.242188 53.101562 225.214844 52.628906 L 225.214844 50.785156 L 223.742188 50.785156 Z M 219.019531 59.808594 C 216.914062 59.808594 215.203125 58.097656 215.203125 55.988281 C 215.199219 54.96875 215.601562 53.988281 216.324219 53.265625 C 217.039062 52.539062 218.023438 52.136719 219.046875 52.160156 C 220.0625 52.132812 221.046875 52.535156 221.753906 53.265625 C 222.480469 53.984375 222.882812 54.96875 222.863281 55.988281 C 222.863281 58.097656 221.152344 59.808594 219.046875 59.808594 Z M 219.019531 59.808594 "></path><path style=" stroke:none;fill-rule:nonzero;fill:rgb(0%,32.941176%,61.960784%);fill-opacity:1;" d="M 274.890625 50.785156 L 274.890625 52.835938 L 275.109375 52.835938 L 274.992188 52.972656 C 274.882812 53.089844 274.742188 53.167969 274.585938 53.203125 C 274.390625 52.90625 274.171875 52.628906 273.925781 52.375 C 271.941406 50.417969 268.757812 50.417969 266.777344 52.375 C 265.367188 53.832031 264.957031 55.984375 265.730469 57.855469 C 266.503906 59.730469 268.3125 60.964844 270.335938 61.003906 C 273.148438 61.003906 275.425781 58.722656 275.425781 55.914062 C 275.421875 55.359375 275.324219 54.808594 275.144531 54.285156 C 275.433594 54.191406 275.695312 54.027344 275.910156 53.8125 C 276.234375 53.472656 276.40625 53.011719 276.378906 52.542969 L 276.378906 50.785156 Z M 270.335938 59.808594 C 268.230469 59.808594 266.519531 58.097656 266.519531 55.988281 C 266.507812 54.964844 266.917969 53.980469 267.652344 53.265625 C 269.164062 51.789062 271.578125 51.789062 273.085938 53.265625 C 273.820312 53.980469 274.230469 54.964844 274.21875 55.988281 C 274.21875 58.097656 272.507812 59.808594 270.402344 59.808594 Z M 270.335938 59.808594 "></path></g></svg> 